<mxfile host="app.diagrams.net" modified="2023-12-26T05:38:59.826Z" agent="Mozilla/5.0 (Windows NT 10.0; Win64; x64) AppleWebKit/537.36 (KHTML, like Gecko) Chrome/121.0.0.0 Safari/537.36 Edg/121.0.0.0" version="22.1.11" etag="E8Uf0u8E1bPROcnaBaC2" type="github">
  <diagram name="Page-1" id="Uu-oD4isFq8tpyOq0rmW">
    <mxGraphModel>
      <root>
        <mxCell id="0" />
        <mxCell id="1" parent="0" />
        <mxCell id="2" value="Start" style="ellipse;aspect=fixed;strokeWidth=2;whiteSpace=wrap;" vertex="1" parent="1">
          <mxGeometry y="52" width="51" height="51" as="geometry" />
        </mxCell>
        <mxCell id="3" value="Get user input for starting the game" style="whiteSpace=wrap;strokeWidth=2;" vertex="1" parent="1">
          <mxGeometry x="101" y="61" width="276" height="34" as="geometry" />
        </mxCell>
        <mxCell id="4" value="Initialize the Turtle screen" style="whiteSpace=wrap;strokeWidth=2;" vertex="1" parent="1">
          <mxGeometry x="426" y="61" width="205" height="34" as="geometry" />
        </mxCell>
        <mxCell id="5" value="Draw the boundaries of the game screen" style="whiteSpace=wrap;strokeWidth=2;" vertex="1" parent="1">
          <mxGeometry x="681" y="61" width="306" height="34" as="geometry" />
        </mxCell>
        <mxCell id="6" value="Create the snake" style="whiteSpace=wrap;strokeWidth=2;" vertex="1" parent="1">
          <mxGeometry x="1037" y="61" width="137" height="34" as="geometry" />
        </mxCell>
        <mxCell id="7" value="Create the food" style="whiteSpace=wrap;strokeWidth=2;" vertex="1" parent="1">
          <mxGeometry x="1224" y="61" width="129" height="34" as="geometry" />
        </mxCell>
        <mxCell id="8" value="Initialize game variables: score, high score, direction" style="whiteSpace=wrap;strokeWidth=2;" vertex="1" parent="1">
          <mxGeometry x="1403" y="61" width="398" height="34" as="geometry" />
        </mxCell>
        <mxCell id="9" value="Game over?" style="rhombus;strokeWidth=2;whiteSpace=wrap;" vertex="1" parent="1">
          <mxGeometry x="1851" y="11" width="132" height="132" as="geometry" />
        </mxCell>
        <mxCell id="10" value="End" style="ellipse;aspect=fixed;strokeWidth=2;whiteSpace=wrap;" vertex="1" parent="1">
          <mxGeometry x="3426" y="4" width="41" height="41" as="geometry" />
        </mxCell>
        <mxCell id="11" value="Process user input" style="whiteSpace=wrap;strokeWidth=2;" vertex="1" parent="1">
          <mxGeometry x="2052" y="87" width="145" height="34" as="geometry" />
        </mxCell>
        <mxCell id="12" value="Move the snake" style="whiteSpace=wrap;strokeWidth=2;" vertex="1" parent="1">
          <mxGeometry x="2248" y="87" width="127" height="34" as="geometry" />
        </mxCell>
        <mxCell id="13" value="Check if the snake collided with the food" style="whiteSpace=wrap;strokeWidth=2;" vertex="1" parent="1">
          <mxGeometry x="2448" y="87" width="311" height="34" as="geometry" />
        </mxCell>
        <mxCell id="14" value="Increment score and update high score" style="whiteSpace=wrap;strokeWidth=2;" vertex="1" parent="1">
          <mxGeometry x="2896" y="45" width="295" height="34" as="geometry" />
        </mxCell>
        <mxCell id="15" value="Check if the snake collided with the boundaries or itself" style="whiteSpace=wrap;strokeWidth=2;" vertex="1" parent="1">
          <mxGeometry x="2834" y="129" width="419" height="34" as="geometry" />
        </mxCell>
        <mxCell id="16" value="Repeat from Process user input" style="whiteSpace=wrap;strokeWidth=2;" vertex="1" parent="1">
          <mxGeometry x="3327" y="148" width="239" height="34" as="geometry" />
        </mxCell>
        <mxCell id="17" value="" style="curved=1;startArrow=none;endArrow=block;exitX=0.9934129901960784;exitY=0.5;entryX=-0.0012171648550724638;entryY=0.4852941176470588;" edge="1" parent="1" source="2" target="3">
          <mxGeometry relative="1" as="geometry">
            <Array as="points" />
          </mxGeometry>
        </mxCell>
        <mxCell id="18" value="" style="curved=1;startArrow=none;endArrow=block;exitX=0.9975373641304348;exitY=0.4852941176470588;entryX=0.0015625;entryY=0.4852941176470588;" edge="1" parent="1" source="3" target="4">
          <mxGeometry relative="1" as="geometry">
            <Array as="points" />
          </mxGeometry>
        </mxCell>
        <mxCell id="19" value="" style="curved=1;startArrow=none;endArrow=block;exitX=1.000076219512195;exitY=0.4852941176470588;entryX=0.000051062091503267975;entryY=0.4852941176470588;" edge="1" parent="1" source="4" target="5">
          <mxGeometry relative="1" as="geometry">
            <Array as="points" />
          </mxGeometry>
        </mxCell>
        <mxCell id="20" value="" style="curved=1;startArrow=none;endArrow=block;exitX=1.0006893382352942;exitY=0.4852941176470588;entryX=0.0015396897810218979;entryY=0.4852941176470588;" edge="1" parent="1" source="5" target="6">
          <mxGeometry relative="1" as="geometry">
            <Array as="points" />
          </mxGeometry>
        </mxCell>
        <mxCell id="21" value="" style="curved=1;startArrow=none;endArrow=block;exitX=1.0025661496350364;exitY=0.4852941176470588;entryX=0.0027252906976744187;entryY=0.4852941176470588;" edge="1" parent="1" source="6" target="7">
          <mxGeometry relative="1" as="geometry">
            <Array as="points" />
          </mxGeometry>
        </mxCell>
        <mxCell id="22" value="" style="curved=1;startArrow=none;endArrow=block;exitX=0.9990915697674418;exitY=0.4852941176470588;entryX=-0.0002944409547738693;entryY=0.4852941176470588;" edge="1" parent="1" source="7" target="8">
          <mxGeometry relative="1" as="geometry">
            <Array as="points" />
          </mxGeometry>
        </mxCell>
        <mxCell id="23" value="" style="curved=1;startArrow=none;endArrow=block;exitX=0.998959641959799;exitY=0.4852941176470588;entryX=-0.003136837121212121;entryY=0.5037878787878788;" edge="1" parent="1" source="8" target="9">
          <mxGeometry relative="1" as="geometry">
            <Array as="points" />
          </mxGeometry>
        </mxCell>
        <mxCell id="24" value="Yes" style="curved=1;startArrow=none;endArrow=block;exitX=1.0000591856060606;exitY=0.16546333379124267;entryX=-0.001714939024390244;entryY=0.44640917349856546;" edge="1" parent="1" source="9" target="10">
          <mxGeometry relative="1" as="geometry">
            <Array as="points">
              <mxPoint x="2018" y="10" />
              <mxPoint x="3290" y="10" />
            </Array>
          </mxGeometry>
        </mxCell>
        <mxCell id="25" value="No" style="curved=1;startArrow=none;endArrow=block;exitX=1.0000591856060606;exitY=0.6331472636395338;entryX=0.0015086206896551724;entryY=0.4852941176470588;" edge="1" parent="1" source="9" target="11">
          <mxGeometry relative="1" as="geometry">
            <Array as="points">
              <mxPoint x="2018" y="104" />
            </Array>
          </mxGeometry>
        </mxCell>
        <mxCell id="26" value="" style="curved=1;startArrow=none;endArrow=block;exitX=1.0038793103448276;exitY=0.4852941176470588;entryX=-0.0034448818897637795;entryY=0.4852941176470588;" edge="1" parent="1" source="11" target="12">
          <mxGeometry relative="1" as="geometry">
            <Array as="points" />
          </mxGeometry>
        </mxCell>
        <mxCell id="27" value="" style="curved=1;startArrow=none;endArrow=block;exitX=0.9937869094488189;exitY=0.4852941176470588;entryX=0.0012309083601286174;entryY=0.4852941176470588;" edge="1" parent="1" source="12" target="13">
          <mxGeometry relative="1" as="geometry">
            <Array as="points" />
          </mxGeometry>
        </mxCell>
        <mxCell id="28" value="Yes" style="curved=1;startArrow=none;endArrow=block;exitX=0.751878660427194;exitY=-0.014705882352941176;entryX=0.000013241525423728813;entryY=0.4852941176470588;" edge="1" parent="1" source="13" target="14">
          <mxGeometry relative="1" as="geometry">
            <Array as="points">
              <mxPoint x="2796" y="62" />
            </Array>
          </mxGeometry>
        </mxCell>
        <mxCell id="29" value="No" style="curved=1;startArrow=none;endArrow=block;exitX=0.751878660427194;exitY=0.9852941176470589;entryX=-0.0010627983293556085;entryY=0.4852941176470588;" edge="1" parent="1" source="13" target="15">
          <mxGeometry relative="1" as="geometry">
            <Array as="points">
              <mxPoint x="2796" y="146" />
            </Array>
          </mxGeometry>
        </mxCell>
        <mxCell id="30" value="Yes" style="curved=1;startArrow=none;endArrow=block;exitX=0.6875687610647973;exitY=-0.014705882352941176;entryX=-0.001714939024390244;entryY=0.712854442804464;" edge="1" parent="1" source="15" target="10">
          <mxGeometry relative="1" as="geometry">
            <Array as="points">
              <mxPoint x="3290" y="92" />
            </Array>
          </mxGeometry>
        </mxCell>
        <mxCell id="31" value="No" style="curved=1;startArrow=none;endArrow=block;exitX=1.0000745823389021;exitY=0.9726493442899181;entryX=0.0008498953974895398;entryY=0.5;" edge="1" parent="1" source="15" target="16">
          <mxGeometry relative="1" as="geometry">
            <Array as="points">
              <mxPoint x="3290" y="165" />
            </Array>
          </mxGeometry>
        </mxCell>
      </root>
    </mxGraphModel>
  </diagram>
</mxfile>
